<svg width="262" height="262" viewBox="0 0 262 262" fill="none" xmlns="http://www.w3.org/2000/svg">
<path d="M262 200.378H0V200.509H262V200.378Z" fill="#E0E0E0"/>
<path d="M197.894 205.927H179.868V206.058H197.894V205.927Z" fill="#E0E0E0"/>
<path d="M58.185 205.99H48.0403V206.121H58.185V205.99Z" fill="#E0E0E0"/>
<path d="M131.524 205.686H110.962V205.817H131.524V205.686Z" fill="#E0E0E0"/>
<path d="M110.438 203.82H101.247V203.951H110.438V203.82Z" fill="#E0E0E0"/>
<path d="M222.469 203.888H194.703V204.019H222.469V203.888Z" fill="#E0E0E0"/>
<path d="M124.188 177.007H23.0088C22.2162 177.006 21.4565 176.69 20.8965 176.129C20.3365 175.568 20.022 174.808 20.022 174.015V31.7859C20.0289 30.9978 20.3465 30.2443 20.9057 29.689C21.465 29.1337 22.2207 28.8214 23.0088 28.8201H124.188C124.982 28.8201 125.743 29.1353 126.304 29.6964C126.865 30.2575 127.18 31.0186 127.18 31.8121V174.015C127.18 174.809 126.865 175.57 126.304 176.131C125.743 176.692 124.982 177.007 124.188 177.007ZM23.0088 28.9249C22.2509 28.9263 21.5246 29.2283 20.9892 29.7647C20.4537 30.3011 20.153 31.028 20.153 31.7859V174.015C20.153 174.773 20.4537 175.5 20.9892 176.036C21.5246 176.573 22.2509 176.875 23.0088 176.876H124.188C124.946 176.875 125.673 176.573 126.21 176.037C126.746 175.501 127.048 174.774 127.049 174.015V31.7859C127.048 31.0275 126.746 30.3006 126.21 29.7644C125.673 29.2281 124.946 28.9263 124.188 28.9249H23.0088Z" fill="#E0E0E0"/>
<path d="M237.534 177.007H136.35C135.557 177.006 134.797 176.69 134.236 176.129C133.675 175.569 133.359 174.808 133.358 174.015V31.7859C133.366 30.9973 133.685 30.2438 134.245 29.6886C134.805 29.1335 135.561 28.8214 136.35 28.8201H237.534C238.322 28.8228 239.076 29.1356 239.634 29.6908C240.192 30.246 240.509 30.9987 240.516 31.7859V174.015C240.516 174.807 240.202 175.566 239.643 176.127C239.085 176.688 238.326 177.005 237.534 177.007ZM136.35 28.9249C135.592 28.9263 134.865 29.2281 134.329 29.7644C133.792 30.3006 133.49 31.0275 133.489 31.7859V174.015C133.49 174.774 133.792 175.501 134.329 176.037C134.865 176.573 135.592 176.875 136.35 176.876H237.534C238.293 176.875 239.02 176.573 239.556 176.037C240.092 175.501 240.394 174.774 240.396 174.015V31.7859C240.394 31.0275 240.092 30.3006 239.556 29.7644C239.02 29.2281 238.293 28.9263 237.534 28.9249H136.35Z" fill="#E0E0E0"/>
<path d="M230.198 134.788C223.753 124.974 229.638 114.426 228.658 103.506C227.678 92.5855 217.303 90.2066 219.268 80.9737C221.542 70.2422 215.479 59.9456 208.61 59.9456C201.74 59.9456 195.683 70.216 197.957 80.958C199.922 90.2066 189.573 92.5908 188.567 103.49C187.561 114.389 193.471 124.974 187.021 134.773C180.57 144.572 182.268 157.582 185.899 164.033C186.865 165.744 188.03 167.336 189.368 168.775C191.829 171.417 194.808 173.524 198.119 174.965C201.43 176.405 205.002 177.149 208.612 177.149C212.223 177.149 215.795 176.405 219.106 174.965C222.416 173.524 225.395 171.417 227.856 168.775C229.191 167.335 230.354 165.743 231.32 164.033C234.956 157.598 236.649 144.624 230.198 134.788Z" fill="#E0E0E0"/>
<path d="M208.61 142.235C209.038 142.235 209.461 142.319 209.857 142.483C210.252 142.647 210.612 142.887 210.914 143.189C211.217 143.492 211.457 143.851 211.621 144.247C211.785 144.642 211.869 145.066 211.869 145.494V200.378H205.35V145.494C205.35 145.066 205.435 144.642 205.598 144.247C205.762 143.851 206.002 143.492 206.305 143.189C206.608 142.887 206.967 142.647 207.362 142.483C207.758 142.319 208.182 142.235 208.61 142.235Z" fill="#F0F0F0"/>
<path d="M167.633 200.378H158.772V145.499C158.775 144.323 159.243 143.196 160.075 142.364C160.907 141.532 162.034 141.064 163.21 141.061C164.387 141.064 165.514 141.532 166.346 142.364C167.177 143.196 167.646 144.323 167.649 145.499L167.633 200.378Z" fill="#E0E0E0"/>
<path d="M163.195 185.575C178.292 185.575 190.532 173.335 190.532 158.237C190.532 143.14 178.292 130.9 163.195 130.9C148.097 130.9 135.857 143.14 135.857 158.237C135.857 173.335 148.097 185.575 163.195 185.575Z" fill="#F0F0F0"/>
<path d="M195.318 150.034C196.752 144.26 193.234 138.416 187.459 136.981C181.685 135.547 175.841 139.065 174.406 144.84C172.972 150.614 176.49 156.458 182.265 157.893C188.039 159.327 193.883 155.809 195.318 150.034Z" fill="#F0F0F0"/>
<path d="M147.376 142.082C147.942 138.606 145.583 135.329 142.107 134.763C138.63 134.197 135.353 136.556 134.787 140.032C134.221 143.508 136.58 146.785 140.056 147.351C143.533 147.918 146.809 145.559 147.376 142.082Z" fill="#F0F0F0"/>
<path d="M148.02 142.235C150.491 142.235 152.494 140.231 152.494 137.76C152.494 135.288 150.491 133.285 148.02 133.285C145.548 133.285 143.545 135.288 143.545 137.76C143.545 140.231 145.548 142.235 148.02 142.235Z" fill="#F0F0F0"/>
<path d="M106.896 167.622C102.645 168.255 98.5827 169.806 94.9907 172.165C94.9593 168.015 94.1995 164.08 92.2502 160.899C89.2844 163.787 86.8792 167.528 84.9142 171.552C84.1963 164.012 82.2104 156.676 77.814 152.028C71.2273 156.173 67.8318 163.079 66.2179 170.394C63.5516 165.462 59.6816 161.284 54.9676 158.248C50.938 162.492 49.649 168.361 49.759 174.377C45.1793 169.042 40.0965 164.882 35.1394 164.394C33.9185 172.826 36.5176 180.78 39.824 187.068C41.9707 191.102 45.1776 194.474 49.0992 196.821C53.0208 199.167 57.5084 200.399 62.0783 200.383H83.6094C92.7847 200.383 101.389 195.489 105.691 187.382C108.41 182.247 109.71 175.64 106.896 167.622Z" fill="#E0E0E0"/>
<path d="M100.744 58.7614C103.401 50.9696 101.268 45.4204 94.7864 45.4204C90.7096 45.4204 85.653 47.6055 80.7274 51.1582C80.172 49.1303 78.6052 47.9199 76.0848 47.9199C71.6465 47.9199 65.5314 51.6717 60.7368 56.9641C59.3869 55.6816 57.5998 54.9604 55.7379 54.9467C51.4882 54.7057 46.3478 56.8646 41.8781 60.3701C41.6541 60.0567 41.3584 59.8013 41.0157 59.6254C40.6729 59.4495 40.2931 59.3581 39.9078 59.3588C37.4608 59.2226 34.1438 61.4024 32.5037 64.2215C32.4042 64.3944 32.3151 64.5674 32.2208 64.7455H102.033C102.243 62.2827 101.808 60.2286 100.744 58.7614Z" fill="#F0F0F0"/>
<path d="M100.959 106.073C102.259 102.269 101.226 99.5601 98.0509 99.5601C96.0545 99.5601 93.5864 100.608 91.1813 102.363C91.0517 101.874 90.7522 101.448 90.3364 101.16C89.9206 100.871 89.4157 100.741 88.9124 100.791C86.7482 100.791 83.7614 102.625 81.4139 105.214C80.7559 104.585 79.8821 104.233 78.9721 104.229C76.8761 104.108 74.3871 105.162 72.202 106.875C72.096 106.724 71.9559 106.599 71.793 106.512C71.6301 106.424 71.4489 106.376 71.264 106.372C70.0693 106.304 68.4502 107.368 67.6484 108.746L67.507 108.997H101.609C101.751 107.976 101.521 106.938 100.959 106.073Z" fill="#F0F0F0"/>
<path d="M179.611 77.2849C179.342 77.2471 179.071 77.2278 178.799 77.2272C179.051 73.4282 177.599 70.9969 174.492 70.9969C172.254 70.9969 169.503 72.265 166.705 74.4081C167.507 67.0302 164.939 62.2356 159.123 62.2356C154.438 62.2356 148.502 65.3796 142.638 70.4414C142.114 67.549 140.395 65.8093 137.492 65.8093C132.394 65.8093 125.147 71.175 119.336 78.7416C118.674 77.8691 117.824 77.1559 116.85 76.6545C115.877 76.1531 114.803 75.8761 113.708 75.8439C108.856 75.5033 102.824 78.5844 97.464 83.6043C97.2689 83.181 96.9585 82.8213 96.5683 82.5664C96.1781 82.3115 95.7239 82.1718 95.2579 82.1633C92.6012 81.9747 88.9699 84.7466 86.8163 88.4513H183.882C186.161 82.834 184.348 77.9189 179.611 77.2849Z" fill="#F0F0F0"/>
<path d="M131 224.041C187.111 224.041 232.598 221.386 232.598 218.11C232.598 214.834 187.111 212.178 131 212.178C74.8887 212.178 29.4016 214.834 29.4016 218.11C29.4016 221.386 74.8887 224.041 131 224.041Z" fill="#F5F5F5"/>
<path d="M25.6027 78.8936L145.059 96.0912L161.088 112.267L25.6027 78.8936Z" fill="#29935C"/>
<path opacity="0.6" d="M25.6027 78.8936L145.059 96.0912L161.088 112.267L25.6027 78.8936Z" fill="white"/>
<path d="M25.6027 78.8936L145.059 96.0912L139.515 119.483L25.6027 78.8936Z" fill="#29935C"/>
<path opacity="0.2" d="M25.6027 78.8936L145.059 96.0912L139.515 119.483L25.6027 78.8936Z" fill="black"/>
<path d="M137.063 51.8131L143.995 84.3011C144.176 85.1495 144.012 86.0347 143.54 86.7626C143.069 87.4906 142.328 88.0017 141.48 88.184L79.6061 101.389C78.7579 101.568 77.8733 101.404 77.1458 100.932C76.4182 100.461 75.9068 99.7208 75.7232 98.8736L68.7855 66.3856C68.6067 65.5366 68.7716 64.6514 69.2439 63.9237C69.7163 63.196 70.4577 62.6851 71.3059 62.5027L133.18 49.2979C134.029 49.1192 134.914 49.284 135.642 49.7564C136.369 50.2288 136.88 50.9702 137.063 51.8184V51.8131Z" fill="#29935C"/>
<path opacity="0.4" d="M137.063 51.8131L143.995 84.3011C144.176 85.1495 144.012 86.0347 143.54 86.7626C143.069 87.4906 142.328 88.0017 141.48 88.184L79.6061 101.389C78.7579 101.568 77.8733 101.404 77.1458 100.932C76.4182 100.461 75.9068 99.7208 75.7232 98.8736L68.7855 66.3856C68.6067 65.5366 68.7716 64.6514 69.2439 63.9237C69.7163 63.196 70.4577 62.6851 71.3059 62.5027L133.18 49.2979C134.029 49.1192 134.914 49.284 135.642 49.7564C136.369 50.2288 136.88 50.9702 137.063 51.8184V51.8131Z" fill="black"/>
<path d="M135.538 49.6857L114.866 75.063C112.949 77.4159 110.286 79.0438 107.318 79.6774C104.35 80.311 101.254 79.9125 98.5435 78.5476L69.3095 63.8232C69.7825 63.1438 70.4963 62.6698 71.3059 62.4975L133.18 49.2927C133.987 49.1209 134.83 49.2613 135.538 49.6857Z" fill="#29935C"/>
<path d="M25.6027 78.8936L124.13 102.311L139.515 119.483L25.6027 78.8936Z" fill="#29935C"/>
<path opacity="0.6" d="M25.6027 78.8936L124.13 102.311L139.515 119.483L25.6027 78.8936Z" fill="white"/>
<path d="M61.5433 101.465L61.2784 101.917L72.2429 108.34L72.5077 107.887L61.5433 101.465Z" fill="#29935C"/>
<path d="M77.3486 110.719L77.0837 111.171L81.0264 113.481L81.2913 113.028L77.3486 110.719Z" fill="#29935C"/>
<path d="M25.6027 78.8936L124.13 102.311L104.978 125.393L25.6027 78.8936Z" fill="#29935C"/>
<path d="M157.389 133.756C157.256 133.757 157.124 133.732 157.001 133.683L140.956 127.332C140.699 127.229 140.494 127.028 140.385 126.774C140.275 126.519 140.271 126.232 140.373 125.975C140.475 125.717 140.674 125.511 140.928 125.4C141.181 125.289 141.468 125.283 141.726 125.383L157.776 131.734C158.003 131.823 158.192 131.99 158.31 132.204C158.427 132.418 158.466 132.666 158.42 132.906C158.375 133.145 158.246 133.362 158.058 133.517C157.87 133.672 157.633 133.757 157.389 133.756Z" fill="#29935C"/>
<path opacity="0.3" d="M157.389 133.756C157.256 133.757 157.124 133.732 157.001 133.683L140.956 127.332C140.699 127.229 140.494 127.028 140.385 126.774C140.275 126.519 140.271 126.232 140.373 125.975C140.475 125.717 140.674 125.511 140.928 125.4C141.181 125.289 141.468 125.283 141.726 125.383L157.776 131.734C158.003 131.823 158.192 131.99 158.31 132.204C158.427 132.418 158.466 132.666 158.42 132.906C158.375 133.145 158.246 133.362 158.058 133.517C157.87 133.672 157.633 133.757 157.389 133.756Z" fill="black"/>
<path d="M156.44 124.555C156.309 124.554 156.179 124.527 156.058 124.476L147.438 121.044C147.309 120.994 147.191 120.919 147.092 120.823C146.992 120.728 146.912 120.613 146.856 120.487C146.801 120.36 146.771 120.224 146.769 120.086C146.766 119.948 146.791 119.81 146.842 119.682C146.893 119.553 146.968 119.436 147.065 119.337C147.161 119.238 147.276 119.158 147.403 119.104C147.53 119.049 147.666 119.02 147.805 119.019C147.943 119.017 148.08 119.043 148.208 119.095L156.828 122.511C157.086 122.613 157.294 122.813 157.405 123.067C157.516 123.322 157.521 123.61 157.42 123.868C157.346 124.069 157.213 124.242 157.038 124.365C156.863 124.488 156.654 124.554 156.44 124.555Z" fill="#29935C"/>
<path opacity="0.5" d="M156.44 124.555C156.309 124.554 156.179 124.527 156.058 124.476L147.438 121.044C147.309 120.994 147.191 120.919 147.092 120.823C146.992 120.728 146.912 120.613 146.856 120.487C146.801 120.36 146.771 120.224 146.769 120.086C146.766 119.948 146.791 119.81 146.842 119.682C146.893 119.553 146.968 119.436 147.065 119.337C147.161 119.238 147.276 119.158 147.403 119.104C147.53 119.049 147.666 119.02 147.805 119.019C147.943 119.017 148.08 119.043 148.208 119.095L156.828 122.511C157.086 122.613 157.294 122.813 157.405 123.067C157.516 123.322 157.521 123.61 157.42 123.868C157.346 124.069 157.213 124.242 157.038 124.365C156.863 124.488 156.654 124.554 156.44 124.555Z" fill="white"/>
<path d="M138.42 133.62C138.289 133.619 138.159 133.594 138.037 133.547L122.385 127.332C122.257 127.282 122.139 127.207 122.039 127.112C121.939 127.016 121.859 126.902 121.804 126.775C121.749 126.648 121.719 126.512 121.716 126.374C121.714 126.236 121.739 126.098 121.79 125.97C121.84 125.841 121.916 125.724 122.012 125.625C122.109 125.526 122.224 125.447 122.351 125.392C122.478 125.337 122.614 125.309 122.752 125.307C122.89 125.305 123.028 125.331 123.156 125.383L138.808 131.576C139.035 131.666 139.223 131.832 139.341 132.046C139.458 132.26 139.498 132.509 139.452 132.748C139.406 132.988 139.278 133.204 139.089 133.36C138.901 133.515 138.664 133.6 138.42 133.599V133.62Z" fill="#29935C"/>
<path opacity="0.3" d="M138.42 133.62C138.289 133.619 138.159 133.594 138.037 133.547L122.385 127.332C122.257 127.282 122.139 127.207 122.039 127.112C121.939 127.016 121.859 126.902 121.804 126.775C121.749 126.648 121.719 126.512 121.716 126.374C121.714 126.236 121.739 126.098 121.79 125.97C121.84 125.841 121.916 125.724 122.012 125.625C122.109 125.526 122.224 125.447 122.351 125.392C122.478 125.337 122.614 125.309 122.752 125.307C122.89 125.305 123.028 125.331 123.156 125.383L138.808 131.576C139.035 131.666 139.223 131.832 139.341 132.046C139.458 132.26 139.498 132.509 139.452 132.748C139.406 132.988 139.278 133.204 139.089 133.36C138.901 133.515 138.664 133.6 138.42 133.599V133.62Z" fill="black"/>
<path d="M195.085 86.3657C196.474 89.0748 197.747 91.7891 198.958 94.5663C200.168 97.3435 201.295 100.157 202.28 103.108L202.636 104.224C202.699 104.423 202.788 104.748 202.84 104.978C202.893 105.209 202.94 105.471 202.966 105.691C203.086 106.536 203.147 107.389 203.15 108.243C203.157 109.817 203.084 111.392 202.929 112.959C202.637 115.992 202.161 119.006 201.504 121.982L198.627 121.662C198.591 118.712 198.565 115.731 198.46 112.822C198.413 111.376 198.329 109.925 198.182 108.562C198.116 107.923 198.011 107.287 197.868 106.66C197.841 106.514 197.8 106.403 197.768 106.283C197.737 106.162 197.705 106.121 197.653 105.963L197.255 104.973C196.159 102.322 194.928 99.6491 193.67 96.9872L189.866 89.0014L195.085 86.3657Z" fill="#E4897B"/>
<path d="M198.669 120.74L197.328 123.25L201.614 124.445C201.614 124.445 202.432 122.428 201.457 120.835L198.669 120.74Z" fill="#E4897B"/>
<path d="M195.688 126.866L199.628 127.18L201.614 124.445L197.328 123.25L195.688 126.866Z" fill="#E4897B"/>
<path d="M177.044 68.2564C176.986 68.5655 176.771 68.7804 176.572 68.7384C176.373 68.6965 176.263 68.4188 176.326 68.1149C176.389 67.811 176.598 67.5909 176.798 67.6328C176.997 67.6747 177.112 67.9524 177.044 68.2564Z" fill="#263238"/>
<path d="M176.803 68.7803C176.249 69.6376 175.581 70.4151 174.817 71.0911C174.995 71.281 175.213 71.4298 175.454 71.5275C175.696 71.6252 175.956 71.6694 176.216 71.657L176.803 68.7803Z" fill="#DE5753"/>
<path d="M178.501 66.7944C178.451 66.7932 178.404 66.7725 178.37 66.7368C178.219 66.5646 178.03 66.4303 177.818 66.3447C177.606 66.2591 177.377 66.2247 177.149 66.2442C177.105 66.2447 177.063 66.2297 177.03 66.2019C176.996 66.1742 176.974 66.1355 176.966 66.0927C176.959 66.05 176.967 66.0059 176.988 65.9684C177.01 65.9309 177.045 65.9024 177.086 65.8879C177.377 65.851 177.673 65.8867 177.947 65.9918C178.222 66.097 178.466 66.2683 178.658 66.4905C178.691 66.5248 178.71 66.5709 178.71 66.6189C178.71 66.6669 178.691 66.713 178.658 66.7473C178.637 66.7665 178.612 66.7807 178.585 66.7888C178.557 66.797 178.529 66.7989 178.501 66.7944Z" fill="#263238"/>
<path d="M185.711 72.5374C185.161 75.3565 184.61 80.5126 186.581 82.3938C186.581 82.3938 185.81 85.2496 180.576 85.2496C174.812 85.2496 177.83 82.3938 177.83 82.3938C180.974 81.6445 180.885 79.3127 180.34 77.1276L185.711 72.5374Z" fill="#E4897B"/>
<path d="M187.372 84.1702C187.786 82.7921 188.242 81.2148 187.299 80.717C186.251 80.193 180.555 79.6166 178.59 80.6384C176.625 81.6602 177.185 84.4636 177.185 84.4636L187.372 84.1702Z" fill="#263238"/>
<path d="M199.455 214.84C199.293 214.862 199.127 214.851 198.969 214.807C198.81 214.764 198.662 214.69 198.533 214.588C198.487 214.525 198.463 214.449 198.463 214.371C198.463 214.293 198.487 214.217 198.533 214.154C198.563 214.099 198.604 214.052 198.654 214.015C198.704 213.978 198.761 213.952 198.821 213.939C199.387 213.813 200.446 214.536 200.493 214.568C200.506 214.579 200.517 214.593 200.523 214.61C200.53 214.626 200.532 214.644 200.529 214.662C200.527 214.679 200.518 214.695 200.506 214.707C200.494 214.719 200.478 214.727 200.461 214.73C200.131 214.801 199.794 214.838 199.455 214.84ZM198.973 214.106H198.863C198.828 214.114 198.794 214.129 198.765 214.151C198.736 214.172 198.712 214.2 198.695 214.232C198.612 214.379 198.664 214.442 198.695 214.463C198.858 214.683 199.644 214.683 200.22 214.588C199.845 214.341 199.419 214.18 198.973 214.117V214.106Z" fill="#29935C"/>
<path d="M200.44 214.746H200.399C200 214.526 199.23 213.698 199.309 213.257C199.322 213.19 199.359 213.128 199.412 213.084C199.466 213.04 199.533 213.016 199.602 213.016C199.671 213.009 199.741 213.015 199.808 213.035C199.874 213.055 199.936 213.088 199.99 213.132C200.435 213.499 200.514 214.609 200.514 214.657C200.516 214.673 200.513 214.69 200.506 214.705C200.498 214.72 200.486 214.732 200.472 214.74C200.462 214.744 200.451 214.746 200.44 214.746ZM199.665 213.174H199.644C199.523 213.174 199.513 213.247 199.508 213.268C199.461 213.525 199.953 214.159 200.346 214.457C200.32 214.02 200.163 213.6 199.896 213.252C199.86 213.225 199.82 213.204 199.777 213.193C199.733 213.181 199.688 213.178 199.644 213.184L199.665 213.174Z" fill="#29935C"/>
<path d="M176.342 214.84C175.849 214.84 175.372 214.772 175.21 214.552C175.169 214.494 175.147 214.424 175.147 214.353C175.147 214.281 175.169 214.212 175.21 214.154C175.242 214.1 175.284 214.053 175.335 214.016C175.385 213.979 175.442 213.953 175.503 213.939C176.137 213.766 177.489 214.531 177.547 214.562C177.562 214.572 177.574 214.586 177.582 214.603C177.589 214.62 177.592 214.639 177.589 214.657C177.586 214.675 177.577 214.692 177.564 214.705C177.551 214.718 177.534 214.727 177.515 214.73C177.128 214.803 176.736 214.84 176.342 214.84ZM175.729 214.096C175.671 214.088 175.613 214.088 175.556 214.096C175.519 214.103 175.484 214.118 175.453 214.14C175.423 214.161 175.397 214.189 175.378 214.222C175.309 214.337 175.336 214.389 175.378 214.421C175.55 214.662 176.525 214.678 177.248 214.578C176.777 214.324 176.261 214.163 175.729 214.106V214.096Z" fill="#29935C"/>
<path d="M177.505 214.746H177.468C177.002 214.541 176.085 213.698 176.153 213.273C176.153 213.168 176.242 213.043 176.494 213.017C176.587 213.002 176.683 213.009 176.773 213.036C176.864 213.063 176.947 213.11 177.018 213.174C177.51 213.572 177.61 214.609 177.615 214.657C177.617 214.673 177.615 214.689 177.608 214.704C177.602 214.718 177.591 214.731 177.578 214.74C177.567 214.747 177.555 214.75 177.542 214.751C177.53 214.752 177.517 214.75 177.505 214.746ZM176.567 213.174H176.509C176.347 213.174 176.336 213.258 176.331 213.279C176.289 213.541 176.918 214.196 177.379 214.478C177.334 214.038 177.151 213.624 176.855 213.294C176.78 213.23 176.687 213.191 176.588 213.184L176.567 213.174Z" fill="#29935C"/>
<path d="M181.739 214.652H177.887L177.505 205.738H181.356L181.739 214.652Z" fill="#E4897B"/>
<path d="M204.853 214.652H201.001L199.068 205.738H202.914L204.853 214.652Z" fill="#E4897B"/>
<path d="M200.729 214.206H205.052C205.129 214.207 205.203 214.233 205.263 214.282C205.323 214.33 205.365 214.398 205.382 214.473L206.142 217.895C206.159 217.978 206.157 218.065 206.137 218.147C206.116 218.23 206.077 218.307 206.023 218.372C205.968 218.438 205.9 218.49 205.823 218.525C205.745 218.561 205.661 218.578 205.576 218.576C204.067 218.55 203.333 218.461 201.431 218.461C200.262 218.461 197.852 218.587 196.233 218.587C194.614 218.587 194.409 217.015 195.069 216.842C198.035 216.192 199.151 215.296 200.1 214.447C200.272 214.291 200.496 214.205 200.729 214.206Z" fill="#263238"/>
<path d="M177.914 214.206H182.106C182.183 214.207 182.258 214.233 182.318 214.282C182.378 214.33 182.419 214.398 182.436 214.473L183.196 217.895C183.214 217.978 183.213 218.063 183.194 218.145C183.174 218.228 183.136 218.304 183.083 218.37C183.029 218.435 182.962 218.488 182.885 218.524C182.808 218.559 182.725 218.577 182.64 218.576C181.126 218.55 178.936 218.461 177.028 218.461C174.801 218.461 172.873 218.587 170.258 218.587C168.686 218.587 168.241 217.015 168.901 216.842C171.914 216.182 174.371 216.113 176.976 214.51C177.253 214.321 177.579 214.216 177.914 214.206Z" fill="#263238"/>
<path d="M176.064 89.1534C172.845 88.904 169.642 88.4789 166.47 87.88C164.898 87.5761 163.294 87.2355 161.701 86.8058C160.068 86.388 158.465 85.8628 156.901 85.2338C156.498 85.0662 156.089 84.8828 155.686 84.7098C155.231 84.4861 154.794 84.2304 154.376 83.9448C153.621 83.447 152.971 82.9282 152.327 82.4147C151.043 81.3667 149.853 80.3187 148.659 79.2445C146.316 77.0752 144.095 74.8324 141.952 72.4744L143.88 70.3208L151.483 75.7861C152.735 76.6874 154.004 77.573 155.251 78.4061C155.869 78.8201 156.503 79.2078 157.085 79.538C157.328 79.6767 157.58 79.7992 157.839 79.9048C158.148 80.0253 158.463 80.1458 158.793 80.2611C161.625 81.1331 164.521 81.7814 167.455 82.1999C170.447 82.6715 173.538 83.0592 176.525 83.3736L176.064 89.1534Z" fill="#E4897B"/>
<path d="M193.471 83.2637C197.082 84.0916 200.729 94.6397 200.729 94.6397L193.304 99.9688C193.304 99.9688 191.208 95.0537 189.185 90.7569C187.068 86.2557 189.782 82.42 193.471 83.2637Z" fill="#29935C"/>
<path opacity="0.4" d="M193.471 83.2637C197.082 84.0916 200.729 94.6397 200.729 94.6397L193.304 99.9688C193.304 99.9688 191.208 95.0537 189.185 90.7569C187.068 86.2557 189.782 82.42 193.471 83.2637Z" fill="black"/>
<path d="M191.391 89.0276L189.919 92.3236C191.443 95.6143 192.837 98.8736 193.209 99.7434C193.157 95.8501 192.418 91.0188 191.391 89.0276Z" fill="#29935C"/>
<path opacity="0.6" d="M191.391 89.0276L189.919 92.3236C191.443 95.6143 192.837 98.8736 193.209 99.7434C193.157 95.8501 192.418 91.0188 191.391 89.0276Z" fill="black"/>
<path d="M171.909 83.4629C171.909 83.4629 167.811 88.0898 171.678 116.737H192.266C192.413 113.593 190.427 98.1558 193.471 83.2638C191.196 82.8255 188.894 82.535 186.581 82.3939C183.666 82.2261 180.744 82.2261 177.83 82.3939C175.831 82.5953 173.852 82.9527 171.909 83.4629Z" fill="#29935C"/>
<path opacity="0.4" d="M171.909 83.4629C171.909 83.4629 167.811 88.0898 171.678 116.737H192.266C192.413 113.593 190.427 98.1558 193.471 83.2638C191.196 82.8255 188.894 82.535 186.581 82.3939C183.666 82.2261 180.744 82.2261 177.83 82.3939C175.831 82.5953 173.852 82.9527 171.909 83.4629Z" fill="black"/>
<path d="M170.384 89.0276C170.248 90.1123 170.143 91.3961 170.075 92.9104C172.108 92.3002 174.04 91.3926 175.807 90.2171L170.384 89.0276Z" fill="#29935C"/>
<path opacity="0.6" d="M170.384 89.0276C170.248 90.1123 170.143 91.3961 170.075 92.9104C172.108 92.3002 174.04 91.3926 175.807 90.2171L170.384 89.0276Z" fill="black"/>
<path d="M179.208 89.604C176.452 92.0459 165.93 91.7996 165.93 91.7996L165.584 81.613C169.137 82.1192 172.721 82.3783 176.31 82.3886C182.174 82.268 182.216 86.9107 179.208 89.604Z" fill="#29935C"/>
<path opacity="0.4" d="M179.208 89.604C176.452 92.0459 165.93 91.7996 165.93 91.7996L165.584 81.613C169.137 82.1192 172.721 82.3783 176.31 82.3886C182.174 82.268 182.216 86.9107 179.208 89.604Z" fill="black"/>
<path d="M143.979 70.3417L141.359 67.2554L138.535 70.3994C138.535 70.3994 140.275 73.3233 143.036 72.8622L143.979 70.3417Z" fill="#E4897B"/>
<path d="M137.608 63.6555L136.591 67.6851L138.514 70.3784L141.339 67.2554L137.608 63.6555Z" fill="#E4897B"/>
<path d="M177.505 205.743L177.704 210.334H181.555L181.356 205.743H177.505Z" fill="#CE6F64"/>
<path d="M202.919 205.743H199.068L200.063 210.334H203.915L202.919 205.743Z" fill="#CE6F64"/>
<path d="M179.821 64.4521C176.368 62.8801 175.278 55.8951 185.213 57.6401C185.213 57.6401 183.714 59.2959 186.754 60.3439C189.793 61.3919 187.251 67.8633 179.821 64.4521Z" fill="#263238"/>
<path d="M187.325 69.6922C186.334 73.3602 185.947 75.5924 183.657 77.1277C180.23 79.4333 175.97 76.7871 175.833 72.8728C175.713 69.3568 177.353 63.9124 181.309 63.1684C182.182 62.9972 183.085 63.0525 183.931 63.3292C184.776 63.6058 185.537 64.0946 186.14 64.7488C186.744 65.403 187.169 66.2008 187.377 67.0662C187.584 67.9316 187.566 68.8356 187.325 69.6922Z" fill="#E4897B"/>
<path d="M185.077 59.474C187.43 60.784 190.615 61.57 190.317 63.4354C189.924 65.7148 192.24 64.2896 191.7 67.6798C191.349 69.8964 187.262 76.614 184.364 76.2891C180.036 75.7651 180.586 69.1837 180.57 65.7148C180.56 63.666 180.466 56.8907 185.077 59.474Z" fill="#263238"/>
<path d="M180.052 62.4138C179.004 62.6601 177.615 68.7018 181.676 69.2573C186.345 69.8913 180.052 62.4138 180.052 62.4138Z" fill="#263238"/>
<path d="M180.156 64.557C178.873 64.6722 175.964 63.1264 176.321 60.7999C176.321 60.7842 178.16 63.5194 180.156 64.557Z" fill="#263238"/>
<path d="M182.064 69.7391C181.67 70.6031 181.001 71.3124 180.162 71.7565C179.056 72.3329 178.432 71.4945 178.684 70.3836C178.909 69.388 179.758 67.8842 180.895 67.7636C182.032 67.6431 182.52 68.6911 182.064 69.7391Z" fill="#E4897B"/>
<path d="M187.828 65.5001C188.611 65.1603 189.297 64.6315 189.826 63.9612C190.355 63.2909 190.709 62.4999 190.856 61.6592C190.856 61.6592 192.586 66.4643 187.828 65.5001Z" fill="#263238"/>
<path d="M192.198 65.4216C191.833 65.1767 191.414 65.026 190.977 64.983C190.54 64.94 190.099 65.0061 189.693 65.1753C189.693 65.1753 191.307 63.0845 192.198 65.4216Z" fill="#263238"/>
<path d="M178.983 116.737C178.983 116.737 183.353 146.154 185.748 157.174C188.368 169.226 198.271 209.448 198.271 209.448H205.319C205.319 209.448 198.795 170.216 197.296 158.248C195.672 145.279 192.266 116.716 192.266 116.716L178.983 116.737Z" fill="#29935C"/>
<path opacity="0.5" d="M178.983 116.737C178.983 116.737 183.353 146.154 185.748 157.174C188.368 169.226 198.271 209.448 198.271 209.448H205.319C205.319 209.448 198.795 170.216 197.296 158.248C195.672 145.279 192.266 116.716 192.266 116.716L178.983 116.737Z" fill="white"/>
<path d="M197.145 206.849C197.113 206.849 197.873 209.558 197.873 209.558H205.806L205.66 207.143L197.145 206.849Z" fill="#29935C"/>
<path opacity="0.1" d="M197.145 206.849C197.113 206.849 197.873 209.558 197.873 209.558H205.806L205.66 207.143L197.145 206.849Z" fill="black"/>
<path d="M181.744 127.217C186.795 128.207 186.261 147.045 185.653 156.734C184.196 149.885 182.064 136.706 180.607 127.353C180.959 127.179 181.361 127.131 181.744 127.217Z" fill="#29935C"/>
<path opacity="0.4" d="M181.744 127.217C186.795 128.207 186.261 147.045 185.653 156.734C184.196 149.885 182.064 136.706 180.607 127.353C180.959 127.179 181.361 127.131 181.744 127.217Z" fill="white"/>
<path d="M171.678 116.737C171.678 116.737 171.154 145.515 171.568 157.258C172.003 169.467 176.284 209.448 176.284 209.448H182.803C182.803 209.448 183.044 170.18 183.327 158.19C183.646 145.117 185.223 116.737 185.223 116.737H171.678Z" fill="#29935C"/>
<path opacity="0.5" d="M171.678 116.737C171.678 116.737 171.154 145.515 171.568 157.258C172.003 169.467 176.284 209.448 176.284 209.448H182.803C182.803 209.448 183.044 170.18 183.327 158.19C183.646 145.117 185.223 116.737 185.223 116.737H171.678Z" fill="white"/>
<path d="M177.636 204.764C177.62 204.764 177.605 204.758 177.593 204.747C177.582 204.736 177.574 204.722 177.573 204.706C176.42 193.639 173.711 166.863 173.381 157.258C173.03 147.454 173.35 125.456 173.454 118.948C173.454 118.931 173.461 118.915 173.473 118.904C173.485 118.892 173.501 118.885 173.517 118.885C173.535 118.885 173.551 118.892 173.564 118.903C173.576 118.915 173.584 118.931 173.585 118.948C173.481 125.456 173.161 147.454 173.512 157.253C173.853 166.857 176.562 193.623 177.704 204.69C177.704 204.708 177.698 204.725 177.686 204.739C177.675 204.752 177.659 204.761 177.641 204.764H177.636Z" fill="#29935C"/>
<path opacity="0.4" d="M177.636 204.764C177.62 204.764 177.605 204.758 177.593 204.747C177.582 204.736 177.574 204.722 177.573 204.706C176.42 193.639 173.711 166.863 173.381 157.258C173.03 147.454 173.35 125.456 173.454 118.948C173.454 118.931 173.461 118.915 173.473 118.904C173.485 118.892 173.501 118.885 173.517 118.885C173.535 118.885 173.551 118.892 173.564 118.903C173.576 118.915 173.584 118.931 173.585 118.948C173.481 125.456 173.161 147.454 173.512 157.253C173.853 166.857 176.562 193.623 177.704 204.69C177.704 204.708 177.698 204.725 177.686 204.739C177.675 204.752 177.659 204.761 177.641 204.764H177.636Z" fill="white"/>
<path d="M175.016 206.849C174.99 206.849 175.388 209.558 175.388 209.558H183.316L183.531 207.143L175.016 206.849Z" fill="#29935C"/>
<path opacity="0.1" d="M175.016 206.849C174.99 206.849 175.388 209.558 175.388 209.558H183.316L183.531 207.143L175.016 206.849Z" fill="black"/>
</svg>
